<svg xmlns="http://www.w3.org/2000/svg" viewBox="0 0 24 24" fill="currentColor">
  <path d="M12.206 1c-1.1 0-4.83.076-6.54 3.472-.547 1.091-.416 2.967-.308 4.478l.004.047c.005.039.009.08.013.121.048.662.098 1.347-.075 1.615-.219.339-.725.455-1.243.577l-.136.032c-.469.115-.98.24-1.336.452-.275.164-.643.43-.66.85-.01.274.155.65.754.9.158.066.356.124.555.182.625.183 1.402.41 1.627.944.13.307.082.707-.142 1.185l-.003.007c-.064.144-1.598 3.56-4.967 4.119-.293.049-.498.297-.481.592.006.105.037.205.089.295.197.42.847.712 2.162.938.052.15.17.542.242.828.046.183.092.366.145.536.054.169.182.566.693.566.168 0 .361-.04.58-.084.375-.077.885-.182 1.534-.182.357 0 .726.038 1.095.113.673.116 1.252.524 1.87.957.894.626 1.91 1.335 3.578 1.335l.322-.002h.001l.322.002c1.668 0 2.684-.709 3.578-1.335.619-.433 1.198-.84 1.87-.957.37-.075.738-.113 1.095-.113.649 0 1.159.105 1.534.182.219.044.412.084.58.084.511 0 .639-.397.693-.566.053-.17.099-.353.145-.536.072-.286.19-.678.242-.828 1.315-.226 1.965-.518 2.162-.938a.795.795 0 00.089-.295c.018-.295-.188-.543-.481-.592-3.369-.559-4.903-3.975-4.967-4.119l-.003-.007c-.224-.478-.272-.878-.142-1.185.225-.534 1.002-.761 1.627-.944.199-.058.397-.116.555-.182.599-.25.764-.626.754-.9-.017-.42-.385-.686-.66-.85-.356-.212-.867-.337-1.336-.452l-.136-.032c-.518-.122-1.024-.238-1.243-.577-.173-.268-.123-.953-.075-1.615.004-.041.008-.082.013-.121l.004-.047c.108-1.511.239-3.387-.308-4.478C17.036 1.076 13.306 1 12.206 1zm0 19c-1.42 0-2.774-.122-4.063-.366-1.288-.244-2.253-.564-2.894-.96-.64-.398-.959-.794-.959-1.19 0-.23.068-.443.204-.64.136-.198.303-.297.5-.297.06 0 .11.008.153.024.472.213.875.376 1.21.488.334.11.71.214 1.127.31.418.094.817.162 1.197.203.38.04.851.06 1.412.06.56 0 1.03-.02 1.41-.06.38-.041.78-.109 1.198-.203.418-.096.793-.2 1.127-.31.335-.112.738-.275 1.21-.488a.445.445 0 01.153-.024c.198 0 .365.099.5.297.137.197.205.41.205.64 0 .396-.32.792-.96 1.19-.64.396-1.605.716-2.893.96-1.289.244-2.643.366-4.063.366z"/>
</svg>